<svg width="30px" height="30px" viewBox="0 0 30 30" version="1.1" xmlns="http://www.w3.org/2000/svg" xmlns:xlink="http://www.w3.org/1999/xlink">
    <path d="M18.7764457,18.9869923 C17.637152,18.9869923 16.7152711,18.002544 16.7152711,16.7876929 C16.7152711,15.5728417 17.637152,14.5869959 18.7764457,14.5869959 C19.9143265,14.5869959 20.8376203,15.5728417 20.8376203,16.7876929 C20.8376203,18.002544 19.9143265,18.9869923 18.7764457,18.9869923 Z M11.2234962,18.9869923 C10.0856154,18.9869923 9.16232164,18.002544 9.16232164,16.7876929 C9.16232164,15.5728417 10.0856154,14.5869959 11.2234962,14.5869959 C12.3627899,14.5869959 13.2846709,15.5728417 13.2846709,16.7876929 C13.2846709,18.002544 12.3627899,18.9869923 11.2234962,18.9869923 Z M26.3279723,15.3550064 C25.610795,11.985529 24.0437368,9.13553805 24.0437368,9.13553805 C21.0437368,6.91250122 18.2357279,7.00047319 18.2357279,7.00047319 L18.0592574,7.29371312 C21.3401963,8.05334526 23.4013842,9.91751337 23.4013842,9.91751337 C20.7190311,8.4038357 17.0696218,7.87879878 14.9999865,7.87879878 C12.9303413,7.87879878 9.28091876,8.40383897 6.59858887,9.91751337 C6.59858887,9.91751337 8.65976348,8.05334526 11.9407156,7.29231892 L11.7642452,7.00047549 C11.7642452,7.00047549 8.95483333,6.91250351 5.95623627,9.13554034 C5.95623627,9.13554034 4.38917802,11.9841568 3.67200071,15.3550086 L3.67199865,15.3550186 C3.29153041,17.1871561 3.06674887,19.0475835 3,20.9167916 C3,20.9167916 4.07152902,22.4151069 5.64564498,23.1523959 C7.15764443,23.8631525 8.29128997,23.9860351 9.25130175,24 L10.656006,22.334119 C10.656006,22.334119 8.30541864,21.6470998 7.06447792,19.9812188 C7.06447792,19.9812188 10.3891826,22.2615094 15,22.2615094 C19.6108042,22.2615094 22.9355088,19.9812188 22.9355088,19.9812188 C21.6931553,21.6470998 19.3454035,22.334119 19.3454035,22.334119 L20.7486983,24 C21.7086968,23.9860362 22.8423456,23.8631548 24.354355,23.1523959 C25.928471,22.4165044 27,20.9167916 27,20.9167916 C27,20.9167916 26.9477646,18.2706515 26.3280013,15.3550186 L26.3279723,15.3550064 Z" id="形状"></path>
</svg>