<?xml version="1.0" encoding="UTF-8"?>
<svg width="30px" height="30px" viewBox="0 0 30 30" version="1.1" xmlns="http://www.w3.org/2000/svg" xmlns:xlink="http://www.w3.org/1999/xlink">
    <title>Github</title>
    <g id="页面-1" stroke="none" stroke-width="1" fill="none" fill-rule="evenodd">
        <g id="landingpage终稿备份" transform="translate(-1320.000000, -3208.000000)" fill="#FFFFFF" fill-rule="nonzero">
            <g id="加入社区" transform="translate(0.000000, 2975.000000)">
                <g id="Github" transform="translate(1283.000000, 202.000000)">
                    <g id="编组-65" transform="translate(37.000000, 31.000000)">
                        <g id="github" transform="translate(3.000000, 5.000000)">
                            <rect id="矩形" opacity="0" x="0" y="3" width="16" height="16"></rect>
                            <path d="M12,0.000410129448 C6.4776,0.000410129448 2,4.59057891 2,10.2536463 C2,14.7839362 4.8652,18.6272593 8.8384,19.9827371 C9.338,20.077477 9.522,19.7604469 9.522,19.4893514 C9.522,19.2449142 9.5128,18.4369592 9.5084,17.5806089 C6.7264,18.2007246 6.1392,16.370727 6.1392,16.370727 C5.6844,15.1858631 5.0288,14.8704735 5.0288,14.8704735 C4.1216,14.2339526 5.0972,14.2470768 5.0972,14.2470768 C6.1012,14.3192596 6.63,15.3035702 6.63,15.3035702 C7.522,16.871085 8.9692,16.4178919 9.5404,16.1558192 C9.63,15.49305 9.8892,15.0406772 10.1752,14.7847565 C7.954,14.5255547 5.6192,13.6462371 5.6192,9.71760714 C5.6192,8.59836388 6.01,7.68336508 6.6496,6.96563855 C6.5456,6.70725699 6.2032,5.66470794 6.7464,4.25222212 C6.7464,4.25222212 7.5864,3.97702526 9.4972,5.30338389 C10.2948,5.07617218 11.1504,4.96215619 12.0004,4.9580549 C12.85,4.96215619 13.706,5.07576205 14.5052,5.30338389 C16.414,3.97661513 17.2524,4.25222212 17.2524,4.25222212 C17.7968,5.66470794 17.4544,6.70725699 17.3508,6.96563855 C17.992,7.68377521 18.38,8.59836388 18.38,9.71760714 C18.38,13.6556701 16.0404,14.5226838 13.8136,14.7765539 C14.1724,15.0948143 14.492,15.7186212 14.492,16.6750431 C14.492,18.0469261 14.4804,19.1509946 14.4804,19.4889412 C14.4804,19.7616773 14.6604,20.0815783 15.1672,19.9810966 C19.1384,18.6239782 22,14.7818856 22,10.2532362 C22,4.59016878 17.5228,0 12,0 L12,0.000410129448 Z" id="路径"></path>
                        </g>
                    </g>
                </g>
            </g>
        </g>
    </g>
</svg>