<?xml version="1.0" encoding="UTF-8"?>
<svg width="30px" height="30px" viewBox="0 0 30 30" version="1.1" xmlns="http://www.w3.org/2000/svg" xmlns:xlink="http://www.w3.org/1999/xlink">
    <title>telegram</title>
    <g id="页面-1" stroke="none" stroke-width="1" fill="none" fill-rule="evenodd">
        <g id="landingpage终稿备份" transform="translate(-1018.000000, -3208.000000)" fill="#FFFFFF" fill-rule="nonzero">
            <g id="加入社区" transform="translate(0.000000, 2975.000000)">
                <g id="Telegram" transform="translate(984.000000, 202.000000)">
                    <g id="编组-64" transform="translate(34.000000, 31.000000)">
                        <g id="Telegram" transform="translate(4.000000, 7.000000)">
                            <path d="M18.6449134,0.115571889 L0.933595875,7.03741963 C-0.275076307,7.52921082 -0.26885672,8.21330498 0.71383723,8.51804657 L5.25931032,9.95664171 L15.7807857,3.23128386 C16.2783526,2.92549062 16.7334199,3.08942101 16.3592073,3.42673933 L7.83319877,11.2218317 L7.92130966,11.3773555 L7.83319877,11.2218317 L7.52221944,15.9737198 L7.5222194,15.9737198 C7.88299915,15.969065 8.22179898,15.7971444 8.44168081,15.5071486 L10.649634,13.3308667 L15.2469532,16.7691935 C16.092817,17.241018 16.7033739,16.996174 16.9138024,15.9726607 L19.9303019,1.56360731 C20.2412812,0.308909272 19.4576133,-0.259593761 18.6490671,0.112402141" id="路径"></path>
                        </g>
                    </g>
                </g>
            </g>
        </g>
    </g>
</svg>