<?xml version="1.0" encoding="UTF-8"?>
<svg width="30px" height="30px" viewBox="0 0 30 30" version="1.1" xmlns="http://www.w3.org/2000/svg" xmlns:xlink="http://www.w3.org/1999/xlink">
    <title>推特</title>
    <g id="页面-1" stroke="none" stroke-width="1" fill="none" fill-rule="evenodd">
        <g id="landingpage终稿备份" transform="translate(-715.000000, -3208.000000)" fill="#FFFFFF" fill-rule="nonzero">
            <g id="加入社区" transform="translate(0.000000, 2975.000000)">
                <g id="推特" transform="translate(681.000000, 202.000000)">
                    <g id="编组-58" transform="translate(34.000000, 31.000000)">
                        <g id="推特" transform="translate(4.000000, 8.000000)">
                            <path d="M22,2.018049 C21.1899286,2.35049921 20.3111371,2.58933343 19.40267,2.6816614 C20.3384274,2.15100046 21.0500818,1.31499891 21.385366,0.318915857 C20.5195965,0.81015954 19.5425168,1.16849265 18.524029,1.35441616 C17.7009355,0.517106146 16.5285259,0 15.2305593,0 C12.7315175,0 10.7217676,1.92570059 10.7217676,4.28846658 C10.7217676,4.62093723 10.7644651,4.95328521 10.8330778,5.27228285 C7.09176739,5.08752468 3.75562167,3.3871853 1.53614454,0.783090844 C1.14535566,1.41969588 0.921403078,2.15100046 0.921403078,2.94885233 C0.921403078,4.43619951 1.71729214,5.74997174 2.93115297,6.52069358 C2.19231573,6.49366577 1.49342551,6.29422836 0.892952376,5.97653918 L0.892952376,6.0294499 C0.892952376,8.11273773 2.4419685,9.84022758 4.50868426,10.2391433 C4.13205627,10.3314917 3.72702055,10.384382 3.32198483,10.384382 C3.02952708,10.384382 2.74994091,10.3585195 2.47175148,10.317896 C3.04379541,12.0183376 4.70536801,13.2532754 6.68668869,13.2938988 C5.13631879,14.4487754 3.19642784,15.1259834 1.0883683,15.1259834 C0.711783287,15.1259834 0.362338177,15.1137167 0,15.0742994 C1.99683534,16.2956619 4.3689449,17 6.92482365,17 C15.2162695,17 19.7534689,10.4657516 19.7534689,4.79571841 C19.7534689,4.60858867 19.7534689,4.42395317 19.7404469,4.23678254 C20.6178846,3.62606042 21.385366,2.8676258 22,2.018049 Z" id="路径"></path>
                        </g>
                    </g>
                </g>
            </g>
        </g>
    </g>
</svg>